<svg xmlns="http://www.w3.org/2000/svg" viewBox="0 0 120 120" fill="none"><defs><linearGradient id="angel" x1="10" y1="20" x2="110" y2="98" gradientUnits="userSpaceOnUse"><stop stop-color="#fff"/><stop offset=".45" stop-color="#BAE6FD"/><stop offset="1" stop-color="#C4B5FD"/></linearGradient></defs><ellipse cx="60" cy="15" rx="25" ry="8" stroke="#FDE68A" stroke-width="4"/><path d="M37 42C21 28 7 38 15 58c6 14 17 21 30 23-8-11-8-25-8-39Zm46 0c16-14 30-4 22 16-6 14-17 21-30 23 8-11 8-25 8-39Z" fill="url(#angel)" stroke="#93C5FD" stroke-width="2"/><path d="M17 91c10 10 24 15 38 16M103 91c-10 10-24 15-38 16" stroke="url(#angel)" stroke-width="4" stroke-linecap="round"/></svg>
