<svg xmlns="http://www.w3.org/2000/svg" viewBox="0 0 120 120" fill="none"><defs><linearGradient id="music" x1="12" y1="19" x2="108" y2="102" gradientUnits="userSpaceOnUse"><stop stop-color="#22D3EE"/><stop offset=".5" stop-color="#8B5CF6"/><stop offset="1" stop-color="#F472B6"/></linearGradient></defs><path d="M17 73A47 47 0 0 1 30 30M103 73a47 47 0 0 0-13-43M26 96a47 47 0 0 0 68 0" stroke="url(#music)" stroke-width="4" stroke-linecap="round"/><g fill="url(#music)" stroke="#fff" stroke-width="1.5"><path d="M23 17v29c-11-4-15 12-4 14 8 1 10-6 10-12V25l17-4v18c-11-4-15 12-4 14 8 1 10-6 10-12V10L23 17Z"/><path d="M91 68v22c-9-3-12 10-3 11 7 1 9-5 9-10V76l12 3v-7l-18-4Z"/></g></svg>
