<svg xmlns="http://www.w3.org/2000/svg" viewBox="0 0 120 120" fill="none"><defs><linearGradient id="star" x1="17" y1="14" x2="105" y2="107" gradientUnits="userSpaceOnUse"><stop stop-color="#FEF08A"/><stop offset=".5" stop-color="#FBBF24"/><stop offset="1" stop-color="#A78BFA"/></linearGradient></defs><circle cx="60" cy="60" r="51" stroke="url(#star)" stroke-width="3" stroke-dasharray="4 10"/><g fill="url(#star)" stroke="#fff" stroke-width="1.5"><path d="m60 4 5 11 12 1-9 8 3 12-11-6-11 6 3-12-9-8 12-1 5-11Z"/><path d="m18 65 4 8 9 1-7 6 2 9-8-5-8 5 2-9-7-6 9-1 4-8Z"/><path d="m101 68 4 8 9 1-7 6 2 9-8-5-8 5 2-9-7-6 9-1 4-8Z"/></g><g fill="#fff"><circle cx="31" cy="34" r="3"/><circle cx="88" cy="38" r="2.5"/><circle cx="60" cy="108" r="3"/></g></svg>
